Patient4_TMGait_0pt2_01_right_22_EMG.mot
version=1
nRows=13
nColumns=33
inDegrees=no
endheader
time	1LAddLong	2LGlutMax	3LGlutMed	4LIliopsoas	5LSemiMemb	6LBicFemLong	7LRecFem	8LVastMed	9LVastLat	10LGasMed	11LTibAnt	12lTibPost	13LPeroneusLong	14LSol	15LExtDigLong	16LFlexDigLong	17RAddLong	18RGlutMax	19RGlutMed	20RIliopsoas	21RSemiMemb	22RBicFemLong	23RRecFem	24RVastMed	25RVastLat	26RGasMed	27RTibAnt	28RTibPost	29RPeroneusLong	30RSol	31RExtDigLong	32RFlexDigLong
49.44	0.005493	0.15167	-0.065155	0.012665	0.032806	-0.57449	-0.047913	0.006714	0.23712	-0.028992	0.020294	-0.036163	-0.24612	0.072784	-0.13046	0.027771	-0.062561	-0.20386	-0.24094	-0.082855	0.15457	-0.10513	0.13199	-0.014191	-0.001831	-0.007782	0.096741	-0.005951	-0.000458	0.215	-0.009766	-0.006714
49.441	0.013275	0.15945	-0.029602	0.015106	0.025635	-0.98496	-0.041351	-0.009766	0.41946	-0.000305	0.067902	-0.031433	-0.62393	0.13825	0.083618	0.015869	-0.004272	-0.20126	-0.11963	-0.19638	0.18524	-0.075531	0.12604	-0.011902	0.003357	-0.00824	-0.32883	-0.004272	0.14755	0.25467	-0.011902	-0.014038
49.442	0.007477	0.15717	-0.016479	0.02594	0.003052	-0.59998	-0.041504	-0.053864	0.63522	0.012817	0.071564	-0.031738	-0.39871	0.052795	0.42664	0.022278	0.033417	-0.21118	-0.15884	-0.10117	0.18601	-0.045471	0.074005	-0.033112	0.008087	-0.014191	-0.36224	-0.002594	0.062103	0.38605	-0.005493	-0.010834
49.443	-0.013885	0.16068	0.053253	0.016785	-0.005646	-0.25207	-0.025177	-0.047455	0.57709	0.023499	-0.087433	-0.026245	-0.23361	0.067902	0.15243	0.043335	0.044861	-0.16586	0.059357	0.041962	0.18631	-0.040436	0.062561	0.011749	0.027924	-0.020447	-0.46875	-0.003815	0.002441	0.40832	-0.013123	-0.010986
49.444	-0.026398	0.13809	0.015411	0.002747	-0.009308	-0.072479	0.10284	-0.028381	0.26489	0.040436	-0.17059	-0.032196	0.021057	0.1001	0.097961	0.022125	0.044556	-0.22095	0.005035	0.19623	0.1799	-0.043335	-0.10147	0.024719	0.043945	-0.007935	-0.30701	-0.006866	0.039368	0.24216	-0.00351	-0.011597
49.445	-0.039063	0.14053	-0.13245	0.030365	-0.015564	0.001526	0.24841	-0.023346	-0.25055	0.003052	0.073853	-0.025177	-0.059204	0.15152	0.18265	0.027618	0.023804	-0.22507	-0.43671	0.13504	0.17929	-0.035858	-0.12589	0.007935	0.035248	-0.005035	-0.49469	-0.002594	0.097656	0.092926	-0.00824	-0.010681
49.446	-0.027771	0.14618	-0.14877	0.019684	-0.014496	0.050964	0.27069	-0.029144	-0.4863	-0.055695	0.011597	-0.023956	0.040894	0.17288	0.048523	0.010376	0.002441	-0.13977	0.3186	0.053406	0.17914	-0.045929	-0.041809	-0.029144	0.033417	0.001373	-0.54092	-0.003357	0.078735	0.038147	-0.00824	-0.006409
49.447	-0.022888	0.16174	0.12161	0.023193	-0.012512	0.10971	0.26062	-0.023651	-0.26993	-0.002747	0.032501	-0.028076	0.11581	0.001373	-0.054474	0.008698	0.003052	-0.1619	0.03952	-0.048981	0.17029	-0.046997	0.028992	-0.024719	0.036163	-0.002747	-0.47638	-0.002594	-0.001526	-0.003967	-0.004425	-0.01297
49.448	-0.011597	0.17883	0.30975	-0.015259	-0.004578	0.083008	0.26657	-0.002441	-0.083618	-0.002899	-0.10864	-0.01709	0.007477	-0.039215	0.064545	0.034943	0.00351	-0.19898	-0.31632	-0.045776	0.18021	-0.049744	0.00351	-0.053864	0.057526	0.002899	-0.13031	0.000305	-0.09491	-0.025177	-0.005493	-0.00946
49.449	-0.002441	0.10407	0.015869	0.002136	-0.003052	0.094757	0.20645	0.004425	0.084534	0.004272	-0.059662	-0.017548	0.053711	-0.010376	-0.022583	0.00351	-0.002136	-0.19882	-0.34256	-0.051727	0.17349	-0.032501	0.044403	-0.036469	0.055695	-0.004272	-0.014496	-0.003204	-0.16251	0.053864	-0.007629	-0.002899
49.45	-0.007629	0.11032	-0.25665	0.041962	0.00473	0.063629	0.14435	0.000305	-0.008087	0.023041	0.17944	-0.025787	-0.22324	-0.038147	0.30975	0.03479	0.061493	-0.1532	-0.51666	-0.02243	0.19058	-0.02533	0.067444	0.015411	0.059662	-0.006866	0.26489	-0.003357	-0.17807	0.17349	-0.006256	0
49.451	-0.005951	0.14969	-0.080261	0.002747	-0.006561	0.11887	0.088196	0.009308	-0.17258	-0.000458	0.14404	-0.01358	0.14771	-0.082092	0.25589	0.030518	0.080566	-0.16419	-0.49667	-0.0383	0.22934	-0.007629	0.14191	0.03067	0.046844	-0.007935	0.43366	-0.00061	-0.13077	0.19867	-0.005188	0.005646
49.452	0.010071	0.12283	0.13763	-0.019836	-0.001526	0.13382	-0.031433	-0.003204	-0.095367	0.013885	-0.083313	-0.016022	0.15503	0.049591	-0.13672	0.015564	0.043793	-0.20126	-0.066376	-0.17929	0.24033	-0.002441	0.14816	0.037384	0.047302	-0.002747	0.37201	-0.00351	-0.083466	0.14954	-0.006561	0.006409
